<svg id="visual" viewBox="0 0 900 600" width="900" height="600" xmlns="http://www.w3.org/2000/svg" xmlns:xlink="http://www.w3.org/1999/xlink" version="1.1"><rect x="0" y="0" width="900" height="600" fill="#ac3c64"></rect><defs><linearGradient id="grad1_0" x1="33.3%" y1="0%" x2="100%" y2="100%"><stop offset="20%" stop-color="#dbdd23" stop-opacity="1"></stop><stop offset="80%" stop-color="#dbdd23" stop-opacity="1"></stop></linearGradient></defs><defs><linearGradient id="grad1_1" x1="33.3%" y1="0%" x2="100%" y2="100%"><stop offset="20%" stop-color="#dbdd23" stop-opacity="1"></stop><stop offset="80%" stop-color="#ee7c3d" stop-opacity="1"></stop></linearGradient></defs><defs><linearGradient id="grad1_2" x1="33.3%" y1="0%" x2="100%" y2="100%"><stop offset="20%" stop-color="#ac3c64" stop-opacity="1"></stop><stop offset="80%" stop-color="#ee7c3d" stop-opacity="1"></stop></linearGradient></defs><defs><linearGradient id="grad2_0" x1="0%" y1="0%" x2="66.7%" y2="100%"><stop offset="20%" stop-color="#dbdd23" stop-opacity="1"></stop><stop offset="80%" stop-color="#dbdd23" stop-opacity="1"></stop></linearGradient></defs><defs><linearGradient id="grad2_1" x1="0%" y1="0%" x2="66.7%" y2="100%"><stop offset="20%" stop-color="#ee7c3d" stop-opacity="1"></stop><stop offset="80%" stop-color="#dbdd23" stop-opacity="1"></stop></linearGradient></defs><defs><linearGradient id="grad2_2" x1="0%" y1="0%" x2="66.7%" y2="100%"><stop offset="20%" stop-color="#ee7c3d" stop-opacity="1"></stop><stop offset="80%" stop-color="#ac3c64" stop-opacity="1"></stop></linearGradient></defs><g transform="translate(900, 0)"><path d="M0 513.8C-65.7 503.8 -131.4 493.9 -195.2 471.2C-258.9 448.5 -320.8 413 -363.3 363.3C-405.8 313.6 -429 249.7 -450.9 186.7C-472.7 123.8 -493.3 61.9 -513.8 0L0 0Z" fill="#d65455"></path><path d="M0 342.5C-43.8 335.9 -87.6 329.3 -130.1 314.1C-172.6 299 -213.9 275.3 -242.2 242.2C-270.5 209.1 -286 166.4 -300.6 124.5C-315.1 82.6 -328.8 41.3 -342.5 0L0 0Z" fill="#f1ab21"></path><path d="M0 171.3C-21.9 167.9 -43.8 164.6 -65.1 157.1C-86.3 149.5 -106.9 137.7 -121.1 121.1C-135.3 104.5 -143 83.2 -150.3 62.2C-157.6 41.3 -164.4 20.6 -171.3 0L0 0Z" fill="#dbdd23"></path></g><g transform="translate(0, 600)"><path d="M0 -513.8C69.1 -508.7 138.1 -503.7 196.6 -474.7C255.1 -445.7 303 -392.8 340.1 -340.1C377.2 -287.4 403.4 -235 430.5 -178.3C457.7 -121.7 485.7 -60.8 513.8 0L0 0Z" fill="#d65455"></path><path d="M0 -342.5C46 -339.2 92.1 -335.8 131.1 -316.5C170.1 -297.1 202 -261.9 226.7 -226.7C251.5 -191.6 268.9 -156.7 287 -118.9C305.1 -81.1 323.8 -40.6 342.5 0L0 0Z" fill="#f1ab21"></path><path d="M0 -171.3C23 -169.6 46 -167.9 65.5 -158.2C85 -148.6 101 -130.9 113.4 -113.4C125.7 -95.8 134.5 -78.3 143.5 -59.4C152.6 -40.6 161.9 -20.3 171.3 0L0 0Z" fill="#dbdd23"></path></g></svg>